<?xml version="1.0" encoding="UTF-8" standalone="no"?>
<!-- Generator: Adobe Illustrator 18.1.1, SVG Export Plug-In . SVG Version: 6.00 Build 0)  -->

<svg
   version="1.1"
   id="Capa_1"
   x="0px"
   y="0px"
   viewBox="0 0 64 64"
   xml:space="preserve"
   sodipodi:docname="cycling-svgrepo-com.svg"
   width="64"
   height="64"
   inkscape:version="1.1.2 (08b2f3d93c, 2022-04-05)"
   xmlns:inkscape="http://www.inkscape.org/namespaces/inkscape"
   xmlns:sodipodi="http://sodipodi.sourceforge.net/DTD/sodipodi-0.dtd"
   xmlns="http://www.w3.org/2000/svg"
   xmlns:svg="http://www.w3.org/2000/svg"><defs
   id="defs48" /><sodipodi:namedview
   id="namedview46"
   pagecolor="#ffffff"
   bordercolor="#999999"
   borderopacity="1"
   inkscape:pageshadow="0"
   inkscape:pageopacity="0"
   inkscape:pagecheckerboard="0"
   showgrid="false"
   width="64px"
   inkscape:zoom="7.4"
   inkscape:cx="27.702703"
   inkscape:cy="35"
   inkscape:window-width="1920"
   inkscape:window-height="949"
   inkscape:window-x="0"
   inkscape:window-y="27"
   inkscape:window-maximized="1"
   inkscape:current-layer="Capa_1" />
<g
   id="g13"
   transform="matrix(0.1265705,0,0,0.17492422,5.731828,-5.188174)"
   style="stroke-width:6.7206;fill:#808080;fill-opacity:1">
	<g
   id="Layer_1_38_"
   style="stroke-width:6.7206;fill:#808080;fill-opacity:1">
		<g
   id="g10"
   style="stroke-width:6.7206;fill:#808080;fill-opacity:1">
			<path
   d="m 333.768,200.631 c -47.551,0 -86.234,38.684 -86.234,86.23 0,47.549 38.684,86.232 86.234,86.232 47.549,0 86.232,-38.684 86.232,-86.232 0,-47.546 -38.684,-86.23 -86.232,-86.23 z m 0,146.674 c -33.328,0 -60.443,-27.113 -60.443,-60.443 0,-33.328 27.115,-60.443 60.443,-60.443 33.326,0 60.441,27.115 60.441,60.443 0,33.33 -27.115,60.443 -60.441,60.443 z"
   id="path2"
   style="stroke-width:6.7206;fill:#808080;fill-opacity:1" />
			<path
   d="M 86.234,200.631 C 38.683,200.631 0,239.315 0,286.861 c 0,47.549 38.684,86.232 86.234,86.232 47.547,0 86.23,-38.684 86.23,-86.232 0.001,-47.546 -38.683,-86.23 -86.23,-86.23 z m 0,146.674 c -33.33,0 -60.443,-27.113 -60.443,-60.443 0,-33.328 27.113,-60.443 60.443,-60.443 33.326,0 60.441,27.115 60.441,60.443 10e-4,33.33 -27.114,60.443 -60.441,60.443 z"
   id="path4"
   style="stroke-width:6.7206;fill:#808080;fill-opacity:1" />
			<path
   d="m 218.662,195.481 -24.012,-18.631 47.371,-24.236 39.959,33.33 c 2.691,2.246 6.109,3.676 9.881,3.873 l 38.078,2.002 c 9.045,0.484 17.219,-5.875 18.779,-15.02 1.682,-9.846 -4.941,-16.221 -14.787,-17.902 l -38.951,-5.816 c 0,0 -28.393,-39.164 -34.818,-45.875 C 240.98,87.165 229.484,75.903 207.422,86.802 l -67.326,33.264 c -19.373,9.748 -32.051,35.586 -21.15,57.646 5.363,10.854 13.783,16.334 26.082,24.316 l 38.975,23.773 4.633,74.486 c 0.66,10.307 9.264,18.482 19.723,18.416 10.842,-0.068 19.576,-8.916 19.506,-19.762 l -0.559,-86.715 c -0.083,-6.368 -3.079,-12.735 -8.644,-16.745 z"
   id="path6"
   style="stroke-width:6.7206;fill:#808080;fill-opacity:1" />
			<path
   d="m 276.707,117.723 c 4.279,2.879 9.125,4.873 14.184,5.861 l 0.053,0.01 c 12.533,2.432 25.715,-1.604 34.754,-10.619 9.168,-9.15 13.195,-22.682 10.521,-35.357 -2.602,-12.348 -11.33,-22.918 -22.986,-27.77 -11.928,-4.959 -25.836,-3.584 -36.547,3.637 -10.713,7.219 -17.205,19.594 -17.086,32.512 0.121,12.623 6.64,24.681 17.107,31.726 z"
   id="path8"
   style="stroke-width:6.7206;fill:#808080;fill-opacity:1" />
		</g>
	</g>
</g>
<g
   id="g15">
</g>
<g
   id="g17">
</g>
<g
   id="g19">
</g>
<g
   id="g21">
</g>
<g
   id="g23">
</g>
<g
   id="g25">
</g>
<g
   id="g27">
</g>
<g
   id="g29">
</g>
<g
   id="g31">
</g>
<g
   id="g33">
</g>
<g
   id="g35">
</g>
<g
   id="g37">
</g>
<g
   id="g39">
</g>
<g
   id="g41">
</g>
<g
   id="g43">
</g>
</svg>
