<?xml version="1.0" encoding="UTF-8" standalone="no"?>
<!-- Generator: Adobe Illustrator 18.0.0, SVG Export Plug-In . SVG Version: 6.00 Build 0)  -->

<svg
   version="1.1"
   id="Capa_1"
   x="0px"
   y="0px"
   viewBox="0 0 64 64"
   xml:space="preserve"
   sodipodi:docname="gym-svgrepo-com.svg"
   width="64"
   height="64"
   inkscape:version="1.1.2 (08b2f3d93c, 2022-04-05)"
   xmlns:inkscape="http://www.inkscape.org/namespaces/inkscape"
   xmlns:sodipodi="http://sodipodi.sourceforge.net/DTD/sodipodi-0.dtd"
   xmlns="http://www.w3.org/2000/svg"
   xmlns:svg="http://www.w3.org/2000/svg"><defs
   id="defs45" /><sodipodi:namedview
   id="namedview43"
   pagecolor="#ffffff"
   bordercolor="#999999"
   borderopacity="1"
   inkscape:pageshadow="0"
   inkscape:pageopacity="0"
   inkscape:pagecheckerboard="0"
   showgrid="false"
   width="64px"
   inkscape:zoom="6.8332923"
   inkscape:cx="23.341604"
   inkscape:cy="44.634415"
   inkscape:window-width="1920"
   inkscape:window-height="949"
   inkscape:window-x="0"
   inkscape:window-y="27"
   inkscape:window-maximized="1"
   inkscape:current-layer="g10" />
<g
   id="g10"
   transform="matrix(0.12540229,0,0,0.18968666,2.7983467,-10.984267)"
   style="stroke-width:6.48379">
	<path
   d="M 441.416,318.81 V 158.125 h -49.93 l -3.366,-2.829 c -24.014,-20.176 -50.669,-35.72 -79.227,-46.2 -27.899,-10.239 -56.992,-15.43 -86.472,-15.43 -29.478,0 -58.573,5.192 -86.478,15.433 -28.561,10.481 -55.218,26.024 -79.231,46.199 l -3.366,2.828 H 13.416 V 318.81 H 0 v 42.356 H 454.832 V 318.81 Z M 222.422,111.616 c 53.165,0 103.789,17.811 146.98,51.608 -8.217,9.251 -16.436,18.501 -24.653,27.751 -36.389,-27.81 -78.51,-42.461 -122.34,-42.461 -43.829,0 -85.944,14.65 -122.327,42.46 L 75.431,163.225 c 43.197,-33.798 93.825,-51.609 146.991,-51.609 z M 108.697,318.81 H 71.469 l -3.188,-53.001 h 43.604 z m 174.743,0 H 171.392 V 174.005 c 16.522,-4.985 33.63,-7.539 51.018,-7.539 20.927,0 41.446,3.698 61.031,10.885 V 318.81 Z m 99.923,0 h -37.229 l -3.188,-53.001 h 43.604 z"
   id="path2"
   style="stroke-width:6.48379;fill:#808080;fill-opacity:1" />
	<path
   d="m 200.805,205.313 c -8.002,0 -11.844,4.477 -11.844,15.171 v 1.585 c 0,10.695 3.842,15.171 12.24,15.171 5.387,0 8.517,-1.703 10.813,-3.604 V 220.01 h -10.497 v 5.545 h 4.08 v 4.952 c -0.95,0.673 -2.377,1.189 -4.198,1.189 h -0.356 c -4.517,0 -5.546,-3.446 -5.546,-9.626 v -1.585 c 0,-6.179 1.069,-9.625 5.308,-9.625 h 0.356 c 3.565,0 4.477,2.456 4.477,6.694 h 6.417 v -1.426 c 0,-7.725 -3.882,-10.815 -11.25,-10.815 z"
   id="path4"
   style="stroke-width:6.48379;fill:#808080;fill-opacity:1" />
	<polygon
   points="221.002,236.725 227.42,236.725 227.42,227.259 236.253,205.828 229.242,205.828 224.211,219.336 219.141,205.828 212.129,205.828 221.002,227.259 "
   id="polygon6"
   style="stroke-width:6.48379;fill:#808080;fill-opacity:1" />
	<polygon
   points="260.609,223.138 260.609,236.725 267.026,236.725 267.026,205.828 257.52,205.828 252.014,225.594 246.468,205.828 237,205.828 237,236.725 243.418,236.725 243.418,223.138 243.22,216.959 248.726,236.725 255.262,236.725 260.768,216.959 "
   id="polygon8"
   style="stroke-width:6.48379;fill:#808080;fill-opacity:1" />
</g>
<g
   id="g12">
</g>
<g
   id="g14">
</g>
<g
   id="g16">
</g>
<g
   id="g18">
</g>
<g
   id="g20">
</g>
<g
   id="g22">
</g>
<g
   id="g24">
</g>
<g
   id="g26">
</g>
<g
   id="g28">
</g>
<g
   id="g30">
</g>
<g
   id="g32">
</g>
<g
   id="g34">
</g>
<g
   id="g36">
</g>
<g
   id="g38">
</g>
<g
   id="g40">
</g>
</svg>
