<?xml version="1.0" encoding="UTF-8" standalone="no"?>
<svg
   width="64"
   height="64"
   viewBox="0 0 64 64"
   version="1.1"
   id="svg6"
   sodipodi:docname="people-svgrepo-com.svg"
   inkscape:version="1.1.2 (08b2f3d93c, 2022-04-05)"
   xmlns:inkscape="http://www.inkscape.org/namespaces/inkscape"
   xmlns:sodipodi="http://sodipodi.sourceforge.net/DTD/sodipodi-0.dtd"
   xmlns="http://www.w3.org/2000/svg"
   xmlns:svg="http://www.w3.org/2000/svg">
  <defs
     id="defs10" />
  <sodipodi:namedview
     id="namedview8"
     pagecolor="#ffffff"
     bordercolor="#999999"
     borderopacity="1"
     inkscape:pageshadow="0"
     inkscape:pageopacity="0"
     inkscape:pagecheckerboard="0"
     showgrid="false"
     width="65px"
     inkscape:zoom="5.7231455"
     inkscape:cx="4.8050499"
     inkscape:cy="23.238969"
     inkscape:window-width="1920"
     inkscape:window-height="949"
     inkscape:window-x="0"
     inkscape:window-y="27"
     inkscape:window-maximized="1"
     inkscape:current-layer="svg6" />
  <path
     d="m 3.3738462,41.718245 a 37.3435,39.908251 0 0 0 4.434912,5.03357 c -0.00484,-0.151008 -0.024784,-0.294067 -0.024784,-0.445074 A 12.466838,13.323061 0 0 1 15.798549,33.913565 2.4789897,2.6492467 0 0 0 16.232372,29.187309 7.3576412,7.8629641 0 0 1 12.741954,22.463522 7.407221,7.9159491 0 0 1 25.19144,16.635179 14.752467,15.765668 0 0 1 30.203958,14.740966 12.380075,13.230338 0 1 0 10.587713,30.861634 17.526457,18.730174 0 0 0 3.373853,41.718245 Z m 58.4000378,0 A 17.526457,18.730174 0 0 0 54.560025,30.856334 12.380075,13.230338 0 1 0 34.943779,14.733019 a 14.74751,15.760368 0 0 1 5.012518,1.894212 7.419616,7.9291955 0 1 1 8.959069,12.55743 2.4789897,2.6492467 0 0 0 0.433822,4.726255 12.466838,13.323061 0 0 1 8.014574,12.395825 c 0,0.151007 -0.01983,0.294066 -0.02478,0.442424 a 37.345978,39.910903 0 0 0 4.434911,-5.03092 z"
     id="path2"
     style="stroke-width:0.999999;fill:#808080;fill-opacity:1" />
  <path
     d="m 49.812759,52.357622 a 17.479356,18.679838 0 0 0 -7.647683,-13.548247 12.285873,13.129666 0 0 0 2.803737,-8.398113 12.394948,13.246233 0 1 0 -21.986158,8.398113 17.479356,18.679838 0 0 0 -7.647684,13.548247 36.993963,39.534709 0 0 0 4.878652,2.249208 c -0.0048,-0.119208 -0.03471,-0.230482 -0.03471,-0.352348 a 12.471796,13.328361 0 0 1 8.014575,-12.393175 2.4789897,2.6492467 0 0 0 0.433822,-4.728906 7.3477252,7.8523672 0 0 1 -3.490418,-6.721139 7.4369695,7.9477407 0 1 1 14.873939,0 7.3477252,7.8523672 0 0 1 -3.490416,6.721139 2.4789897,2.6492467 0 0 0 0.433821,4.728906 12.471796,13.328361 0 0 1 8.014573,12.393175 c 0,0.121874 -0.02975,0.233133 -0.03222,0.352348 a 36.984046,39.524111 0 0 0 4.876173,-2.249208 z"
     id="path4"
     style="stroke-width:0.999999;fill:#808080;fill-opacity:1" />
</svg>
