<?xml version="1.0" encoding="UTF-8" standalone="no"?>
<svg
   class="svg-icon"
   style="overflow:hidden;fill:currentColor"
   viewBox="0 0 64 64"
   version="1.1"
   id="svg8"
   sodipodi:docname="quick_addition.svg"
   width="64"
   height="64"
   inkscape:version="1.1.2 (3e3d20f904, 2022-03-26)"
   xmlns:inkscape="http://www.inkscape.org/namespaces/inkscape"
   xmlns:sodipodi="http://sodipodi.sourceforge.net/DTD/sodipodi-0.dtd"
   xmlns="http://www.w3.org/2000/svg"
   xmlns:svg="http://www.w3.org/2000/svg">
  <defs
     id="defs12" />
  <sodipodi:namedview
     id="namedview10"
     pagecolor="#ffffff"
     bordercolor="#999999"
     borderopacity="1"
     inkscape:pageshadow="0"
     inkscape:pageopacity="0"
     inkscape:pagecheckerboard="0"
     showgrid="false"
     inkscape:zoom="4.2923591"
     inkscape:cx="58.592488"
     inkscape:cy="56.845197"
     inkscape:window-width="1920"
     inkscape:window-height="949"
     inkscape:window-x="0"
     inkscape:window-y="27"
     inkscape:window-maximized="1"
     inkscape:current-layer="svg8" />
  <path
     d="m 20.922593,15.017101 c 1.300266,0 2.579331,0.224592 3.80893,0.673773 0.741996,0.314431 1.547595,0.733669 2.388525,1.227769 1.554663,0.920825 3.907859,1.24274 5.44839,1.24274 0.911597,0 1.823196,-0.149724 2.72066,-0.449183 0.727868,-0.239564 1.441601,-0.531534 2.119995,-0.853447 l 1.745464,-0.830993 c 0.346268,-0.164696 0.685467,-0.269507 1.003467,-0.321914 l 0.04241,-0.0075 0.0424,-0.0075 c 1.074126,-0.20213 2.148261,-0.306937 3.172922,-0.306937 0.169603,0 0.339203,0 0.508801,0.0075 1.0812,0.03745 2.098797,0.239563 3.031592,0.606394 0.848,0.336887 1.618267,0.87591 2.353193,1.661978 0.763204,0.816019 1.462801,1.968926 2.063466,3.413797 1.102397,2.717561 1.483996,4.491835 1.448665,6.797642 -0.03535,2.665155 -0.438133,5.345283 -1.187197,7.980493 -0.770267,2.702589 -1.844394,5.390205 -3.179992,7.995466 -0.939865,1.826684 -1.950397,3.346423 -3.017463,4.948505 -0.459333,0.688752 -0.932796,1.39247 -1.41333,2.156084 -1.052934,1.609572 -1.816131,2.433074 -2.268399,2.83734 -0.657199,0.591428 -1.13066,0.808531 -1.406259,0.883393 -0.339204,0.09732 -0.671333,0.142245 -1.003468,0.142245 -0.127199,0 -0.261464,-0.0076 -0.395729,-0.02248 -0.727866,-0.08235 -1.526397,-0.209619 -2.360268,-0.381805 -0.98933,-0.202134 -2.070524,-0.366831 -3.201194,-0.486615 -0.445193,-0.0524 -0.975191,-0.07487 -1.575857,-0.07487 -1.215465,0 -2.473333,0.09732 -3.441463,0.269513 l -0.0212,0.0076 -0.0212,0.0076 c -1.985733,0.389295 -3.603997,0.621375 -4.798258,0.681265 -0.09894,0.0076 -0.190801,0.0076 -0.282665,0.0076 -0.692537,0 -1.272,-0.134758 -1.766668,-0.419238 -0.635997,-0.359348 -1.335597,-1.070551 -2.028128,-2.05876 -0.904531,-1.287657 -2.049328,-3.129309 -3.413193,-5.495007 l -0.0283,-0.0524 c -1.731338,-3.002184 -3.102267,-5.367882 -4.162264,-8.362435 -1.07413,-3.024502 -1.752529,-5.966655 -2.0139964,-8.744106 -0.2402696,-2.552859 -0.091862,-4.282217 0.5794634,-6.617974 0.593602,-2.058754 1.667728,-3.758166 3.285995,-5.18807 l 0.0071,-0.0076 0.0071,-0.0076 c 1.724261,-1.542199 3.490923,-2.43308 5.40599,-2.717556 0.600667,-0.08236 1.208397,-0.134757 1.801998,-0.134757 m 0,-2.994557 c -0.727867,0 -1.469862,0.0599 -2.218928,0.172183 -2.430931,0.366837 -4.706395,1.504767 -6.833453,3.398824 -2.035204,1.804219 -3.4273347,4.005219 -4.1764003,6.617968 -0.7490651,2.612756 -0.9751961,4.746378 -0.6854668,7.793335 0.2897341,3.04696 1.0176014,6.21371 2.1835967,9.492744 1.1660014,3.279044 2.6429294,5.831904 4.4307934,8.92378 1.413331,2.448053 2.600529,4.357083 3.554527,5.719603 0.953999,1.362525 1.94333,2.335753 2.960926,2.912207 0.911602,0.516562 1.943327,0.771098 3.102262,0.771098 0.14133,0 0.282666,0 0.423996,-0.0076 1.328534,-0.06738 3.059865,-0.314431 5.179858,-0.72618 0.862128,-0.157212 1.992794,-0.23208 2.967995,-0.23208 0.487598,0 0.932795,0.02247 1.286133,0.0599 1.059997,0.11229 2.049326,0.262019 2.960925,0.449182 0.911598,0.187158 1.780795,0.32191 2.586394,0.419237 0.233199,0.02993 0.4664,0.03745 0.692537,0.03745 0.579457,0 1.158931,-0.08236 1.738389,-0.247052 0.812669,-0.232081 1.639466,-0.72618 2.494535,-1.489793 0.855058,-0.763613 1.780794,-1.909031 2.777189,-3.428769 1.618263,-2.537887 3.15173,-4.566697 4.586261,-7.36661 1.434531,-2.79991 2.565191,-5.644741 3.399056,-8.556942 0.833867,-2.912208 1.264936,-5.846877 1.307332,-8.803997 0.0424,-2.95708 -0.522934,-5.173057 -1.681865,-8.032854 -0.74906,-1.80423 -1.632397,-3.2491 -2.649988,-4.334627 -1.017601,-1.085527 -2.141201,-1.871597 -3.3708,-2.358213 -1.229594,-0.486612 -2.536926,-0.748635 -3.929052,-0.793559 -0.197868,-0.0075 -0.395738,-0.0075 -0.600669,-0.0075 -1.20133,0 -2.423865,0.119779 -3.674661,0.359348 -0.579464,0.08983 -1.165996,0.276998 -1.745465,0.553994 l -1.74546,0.830987 c -0.579468,0.276998 -1.187197,0.516561 -1.809067,0.726181 -0.621864,0.209618 -1.250796,0.31443 -1.87266,0.31443 -1.250796,0 -3.088126,-0.291969 -4.070392,-0.868421 -0.975201,-0.576327 -1.900926,-1.047966 -2.777193,-1.422285 -1.5476,-0.58394 -3.144661,-0.875909 -4.791191,-0.875909 z"
     id="path4"
     style="fill:#808080;fill-opacity:1;stroke-width:0.999997" />
  <path
     d="m 31.741641,17.659794 c -0.777334,0 -1.568798,-0.06738 -2.367329,-0.20213 -0.600665,-0.104807 -1.081199,-0.6064 -1.173064,-1.242741 -0.6996,-4.664024 0.558265,-9.0884812 3.441459,-12.1504127 2.890261,-3.0619373 7.066652,-4.38702877 11.469178,-3.64587603 0.600665,0.10481191 1.0812,0.60640033 1.173064,1.24274023 0.699596,4.6640259 -0.558265,9.0884825 -3.441457,12.1504135 -2.360263,2.500453 -5.589725,3.848006 -9.101851,3.848006 z m -0.876266,-3.031986 c 3.095194,0.239563 5.964254,-0.801048 7.978249,-2.942152 2.013996,-2.1336223 2.996266,-5.1656098 2.7772,-8.4521382 -3.095201,-0.2395634 -5.96426,0.8010472 -7.978255,2.9421532 -2.013996,2.1411109 -2.996262,5.173097 -2.777194,8.452137 z"
     id="path6"
     style="fill:#808080;fill-opacity:1;stroke-width:0.999997" />
  <rect
     style="fill:#808080;fill-rule:evenodd;fill-opacity:1"
     id="rect1382"
     width="3.4190898"
     height="15.163042"
     x="53.525204"
     y="46.336765"
     rx="20.2523"
     ry="1.7770851" />
  <rect
     style="overflow:hidden;fill:#808080;fill-rule:evenodd;fill-opacity:1"
     id="rect1382-3"
     width="3.4190898"
     height="15.163042"
     x="51.913071"
     y="-62.899384"
     rx="20.2523"
     ry="1.7770851"
     transform="rotate(90.176063)" />
</svg>
