<?xml version="1.0" encoding="UTF-8" standalone="no"?>
<svg
   width="64"
   height="64"
   viewBox="-48 0 64 64"
   version="1.1"
   id="svg4"
   sodipodi:docname="running-svgrepo-com.svg"
   inkscape:version="1.1.2 (08b2f3d93c, 2022-04-05)"
   xmlns:inkscape="http://www.inkscape.org/namespaces/inkscape"
   xmlns:sodipodi="http://sodipodi.sourceforge.net/DTD/sodipodi-0.dtd"
   xmlns="http://www.w3.org/2000/svg"
   xmlns:svg="http://www.w3.org/2000/svg">
  <defs
     id="defs8" />
  <sodipodi:namedview
     id="namedview6"
     pagecolor="#ffffff"
     bordercolor="#999999"
     borderopacity="1"
     inkscape:pageshadow="0"
     inkscape:pageopacity="0"
     inkscape:pagecheckerboard="0"
     showgrid="false"
     width="64px"
     inkscape:zoom="6.0703125"
     inkscape:cx="56.586873"
     inkscape:cy="56.339768"
     inkscape:window-width="1920"
     inkscape:window-height="949"
     inkscape:window-x="0"
     inkscape:window-y="27"
     inkscape:window-maximized="1"
     inkscape:current-layer="svg4" />
  <path
     d="m -10.89862,12.741944 c 2.5240541,0 4.5701471,-2.544323 4.5701471,-5.6829921 0,-3.138669 -2.046093,-5.6829917 -4.5701471,-5.6829917 -2.524055,0 -4.570147,2.5443227 -4.570147,5.6829917 0,3.1386691 2.046092,5.6829921 4.570147,5.6829921 z m -15.072917,26.221087 -1.409129,4.087018 h -6.36869 c -1.682386,0 -3.046765,1.69661 -3.046765,3.788661 0,2.092052 1.364379,3.788661 3.046765,3.788661 h 7.374122 c 1.83282,0 3.482833,-1.354446 4.199775,-3.444129 l 0.836909,-2.42948 -1.015906,-0.745892 c -1.649061,-1.211188 -2.862055,-3.003698 -3.617081,-5.044839 z M -0.23494394,27.895404 H -4.4271009 l -2.48121,-6.304569 c -1.190142,-3.025009 -3.3752441,-5.23664 -5.8821601,-6.031075 l -6.767626,-2.502884 c -2.694483,-0.805091 -5.500363,-0.06512 -7.696889,2.029302 l -3.777037,3.600412 c -1.335816,1.272753 -1.589078,3.650138 -0.563651,5.311229 1.025427,1.661091 2.936319,1.972472 4.271183,0.700902 l 3.77894,-3.600412 c 0.730272,-0.69735 1.660487,-0.947165 2.405992,-0.726949 l 1.399608,0.517389 -3.566619,10.346597 c -1.201568,3.490304 -0.124727,7.578506 2.50406,9.508355 l 8.091064,5.939911 -2.615457,10.386851 c -0.502716,1.996151 0.391319,4.121353 1.996584,4.746483 0.303724,0.118395 0.610304,0.175225 0.912125,0.175225 1.295827,0 2.4973951,-1.03833 2.9058511,-2.657983 l 3.012489,-11.965065 c 0.5627,-2.459078 -0.275161,-5.100486 -2.060374,-6.43954 l -5.8307471,-4.27882 2.98107,-9.268012 1.9299341,4.905133 c 0.761692,1.934584 2.372669,3.183659 4.104564,3.183659 h 5.14046296 c 1.68238604,0 3.04676504,-1.69661 3.04676504,-3.788662 0,-2.092051 -1.364379,-3.787477 -3.04676504,-3.787477 z"
     id="path2"
     style="stroke-width:1;fill:#808080;fill-opacity:1" />
</svg>
