<?xml version="1.0" encoding="UTF-8" standalone="no"?>
<!-- Generator: Adobe Illustrator 16.0.0, SVG Export Plug-In . SVG Version: 6.00 Build 0)  -->

<svg
   version="1.1"
   id="Capa_1"
   x="0px"
   y="0px"
   width="64"
   height="64"
   viewBox="0 0 64.000001 64.000001"
   xml:space="preserve"
   sodipodi:docname="swimming-svgrepo-com.svg"
   inkscape:version="1.1.2 (08b2f3d93c, 2022-04-05)"
   xmlns:inkscape="http://www.inkscape.org/namespaces/inkscape"
   xmlns:sodipodi="http://sodipodi.sourceforge.net/DTD/sodipodi-0.dtd"
   xmlns="http://www.w3.org/2000/svg"
   xmlns:svg="http://www.w3.org/2000/svg"><defs
   id="defs45" /><sodipodi:namedview
   id="namedview43"
   pagecolor="#ffffff"
   bordercolor="#999999"
   borderopacity="1"
   inkscape:pageshadow="0"
   inkscape:pageopacity="0"
   inkscape:pagecheckerboard="0"
   showgrid="false"
   width="64px"
   inkscape:zoom="3.0941383"
   inkscape:cx="32.15758"
   inkscape:cy="-17.452355"
   inkscape:window-width="1920"
   inkscape:window-height="949"
   inkscape:window-x="0"
   inkscape:window-y="27"
   inkscape:window-maximized="1"
   inkscape:current-layer="Capa_1" />
<g
   id="g10"
   transform="matrix(2.0491888,0,0,2.4245785,0,-8.1881426)"
   style="stroke-width:0.448633;fill:#808080;fill-opacity:1">
	<g
   id="g8"
   style="stroke-width:0.448633;fill:#808080;fill-opacity:1">
		<path
   d="m 27.851,21.77 c -0.327,0.375 -0.803,0.591 -1.304,0.591 -0.498,0 -0.975,-0.215 -1.301,-0.591 -1.033,-1.184 -2.543,-1.933 -4.244,-1.933 -1.686,0 -3.184,0.733 -4.216,1.897 -0.328,0.37 -0.797,0.581 -1.292,0.581 -0.494,0 -0.965,-0.21 -1.294,-0.58 -1.034,-1.164 -2.528,-1.898 -4.215,-1.898 -1.685,0 -3.183,0.733 -4.214,1.898 -0.33,0.37 -0.799,0.58 -1.295,0.58 v 0 c -0.492,0 -0.965,-0.21 -1.292,-0.579 C 2.369,20.816 1.259,20.182 0,19.948 v 3.414 c 0.27,0.134 0.519,0.315 0.728,0.552 0.951,1.07 2.316,1.684 3.749,1.684 1.432,0 2.799,-0.613 3.747,-1.686 0.456,-0.512 1.083,-0.794 1.762,-0.794 0.681,0 1.307,0.282 1.76,0.795 0.95,1.071 2.316,1.686 3.749,1.686 1.431,0 2.798,-0.615 3.746,-1.686 0.455,-0.513 1.082,-0.795 1.763,-0.795 0.926,0 1.507,0.508 1.771,0.809 0.95,1.09 2.325,1.716 3.778,1.716 1.448,-0.002 2.824,-0.627 3.772,-1.716 0.188,-0.215 0.545,-0.529 1.065,-0.694 v -3.319 c -1.408,0.178 -2.652,0.841 -3.539,1.856 z"
   id="path2"
   style="stroke-width:0.448633;fill:#808080;fill-opacity:1" />
		<circle
   cx="24.374001"
   cy="14.518"
   r="4.0469999"
   id="circle4"
   style="stroke-width:0.448633;fill:#808080;fill-opacity:1" />
		<path
   d="m 15.018,21.01 c 0.24,0.268 0.708,0.27 0.949,-0.001 1.035,-1.165 2.436,-1.919 3.949,-2.168 0.104,-0.617 0.072,-1.267 -0.15,-1.898 -0.117,-0.331 -1.404,-4.654 -1.404,-4.654 -0.002,-0.009 -0.156,-0.9 0.391,-1.701 C 19.295,9.795 20.43,9.251 22.03,9.011 22.926,8.877 23.544,8.043 23.411,7.147 23.28,6.251 22.452,5.632 21.545,5.766 18.983,6.148 17.13,7.147 16.044,8.734 c -1.352,1.975 -0.936,4.049 -0.875,4.31 l 0.348,1.41 c -0.212,0.037 -0.426,0.08 -0.634,0.154 l -6.62,2.337 c -1.484,0.524 -2.438,1.868 -2.543,3.341 1.195,-0.984 2.7,-1.543 4.268,-1.543 1.919,-0.002 3.753,0.826 5.03,2.267 z"
   id="path6"
   style="stroke-width:0.448633;fill:#808080;fill-opacity:1" />
	</g>
</g>
<g
   id="g12">
</g>
<g
   id="g14">
</g>
<g
   id="g16">
</g>
<g
   id="g18">
</g>
<g
   id="g20">
</g>
<g
   id="g22">
</g>
<g
   id="g24">
</g>
<g
   id="g26">
</g>
<g
   id="g28">
</g>
<g
   id="g30">
</g>
<g
   id="g32">
</g>
<g
   id="g34">
</g>
<g
   id="g36">
</g>
<g
   id="g38">
</g>
<g
   id="g40">
</g>
</svg>
