<?xml version="1.0" encoding="UTF-8" standalone="no"?>
<svg
   width="64"
   height="64"
   viewBox="-96 0 64 64"
   version="1.1"
   id="svg4"
   sodipodi:docname="walking-svgrepo-com.svg"
   inkscape:version="1.1.2 (08b2f3d93c, 2022-04-05)"
   xmlns:inkscape="http://www.inkscape.org/namespaces/inkscape"
   xmlns:sodipodi="http://sodipodi.sourceforge.net/DTD/sodipodi-0.dtd"
   xmlns="http://www.w3.org/2000/svg"
   xmlns:svg="http://www.w3.org/2000/svg">
  <defs
     id="defs8" />
  <sodipodi:namedview
     id="namedview6"
     pagecolor="#ffffff"
     bordercolor="#999999"
     borderopacity="1"
     inkscape:pageshadow="0"
     inkscape:pageopacity="0"
     inkscape:pagecheckerboard="0"
     showgrid="false"
     width="64px"
     inkscape:zoom="6.0703125"
     inkscape:cx="25.287001"
     inkscape:cy="35.747748"
     inkscape:window-width="1920"
     inkscape:window-height="949"
     inkscape:window-x="0"
     inkscape:window-y="27"
     inkscape:window-maximized="1"
     inkscape:current-layer="svg4" />
  <path
     d="m -60.23589,14.015109 c 2.305855,0 4.176643,-2.361378 4.176643,-5.2719126 0,-2.910535 -1.870788,-5.2719125 -4.176643,-5.2719125 -2.305857,0 -4.176645,2.3613775 -4.176645,5.2719125 0,2.9105346 1.870788,5.2719126 4.176645,5.2719126 z m 8.222768,16.375878 -2.027413,-1.296012 -0.84403,-3.229046 c -1.279097,-4.898486 -4.846647,-8.32523 -8.892772,-8.336213 -3.132483,-0.01098 -4.864051,1.109299 -8.118353,2.767755 -1.87949,0.955534 -3.419628,2.767755 -4.324568,5.074216 l -0.582989,1.493707 c -0.678706,1.735339 -0.130521,3.844104 1.23559,4.711773 1.357409,0.867668 3.010664,0.164748 3.698071,-1.570591 l 0.58299,-1.493708 c 0.304546,-0.76882 0.809224,-1.372894 1.435721,-1.691405 l 2.331961,-1.18618 -1.322605,6.666772 c -0.452469,2.284496 0.0348,4.711771 1.2965,6.458093 l 5.212104,7.182981 c 0.626499,0.867668 1.070267,1.911068 1.296501,3.042333 l 1.592345,8.050648 c 0.374159,1.87812 1.888192,3.031351 3.376121,2.559076 1.48793,-0.472277 2.401571,-2.383345 2.027413,-4.261464 l -1.931698,-9.775004 c -0.226233,-1.131265 -0.670003,-2.185646 -1.2965,-3.042333 l -3.959111,-5.458625 1.496632,-7.545425 0.478574,1.812219 c 0.461171,1.768288 1.453124,3.229048 2.758325,4.063765 l 2.027413,1.296014 c 1.357409,0.867668 3.010664,0.164747 3.698071,-1.570592 0.670003,-1.724354 0.121819,-3.855086 -1.244293,-4.722754 z M -71.930495,45.84428 c -0.278445,0.889635 -0.696109,1.691405 -1.235591,2.361378 l -4.350672,5.502557 c -1.087668,1.372895 -1.087668,3.602475 0,4.975369 1.087668,1.372894 2.845339,1.372894 3.933007,0 l 5.168598,-6.523992 c 0.530782,-0.669972 0.948446,-1.471742 1.23559,-2.361378 l 1.174682,-3.712305 c -4.811843,-6.62284 -3.36742,-4.590957 -4.124437,-5.897951 z"
     id="path2"
     style="fill:#808080;fill-opacity:1;stroke-width:0.999994" />
</svg>
